<?xml version="1.0" encoding="utf-8"?>
<!-- Uploaded to: SVG Repo, www.svgrepo.com, Generator: SVG Repo Mixer Tools -->
<svg xmlns="http://www.w3.org/2000/svg" xmlns:xlink="http://www.w3.org/1999/xlink" version="1.1" id="clouddistribute"  viewBox="0 0 221.6855 215.0508" enable-background="new 0 0 221.6855 215.0508" xml:space="preserve" width="512" height="512">
<g>
	<path fill="#D0E8FF" d="M159.3809,118.5645c-8.6445,0-17.0273,2.4609-24.2422,7.1172l-3.9453,2.5469l-1.8867-4.3008   c-6.5703-14.9824-21.4492-24.6621-37.9023-24.6621c-20.4297,0-38.0156,15.1191-40.8984,35.168l-0.4961,3.4297l-3.9219-0.002   c-19.2148,0-34.8438,15.5195-34.8438,34.5957c0,19.0742,15.6289,34.5938,34.8438,34.5938h106.0586v-0.2715l4.2617,0.1738   c0.9844,0.0645,1.9766,0.0977,2.9727,0.0977c24.5703,0,44.5586-19.8477,44.5586-44.2422   C203.9395,138.4121,183.9512,118.5645,159.3809,118.5645z"/>
	<polygon fill="#1C71DA" points="211.7009,67.2871 213.6855,67.3242 213.6855,65.3027  "/>
	<path fill="#1C71DA" d="M159.3809,110.5645c-8.6875,0-17.1484,2.1094-24.7305,6.1367   c-8.6055-15.5859-25.1289-25.4355-43.2461-25.4355c-23.2383,0-43.3906,16.4102-48.2188,38.6914   c-22.2773,1.4883-39.9414,19.9824-39.9414,42.5c0,23.4863,19.2188,42.5938,42.8438,42.5938h110.0586l1.3086-0.0352   c0.6367,0.0234,1.2812,0.0352,1.9258,0.0352c28.9805,0,52.5586-23.4355,52.5586-52.2422S188.3613,110.5645,159.3809,110.5645z    M159.3809,207.0508c-0.9961,0-1.9883-0.0332-2.9727-0.0977l-4.2617-0.1738v0.2715H46.0879   c-19.2148,0-34.8438-15.5195-34.8438-34.5938c0-19.0762,15.6289-34.5957,34.8438-34.5957l3.9219,0.002l0.4961-3.4297   c2.8828-20.0488,20.4688-35.168,40.8984-35.168c16.4531,0,31.332,9.6797,37.9023,24.6621l1.8867,4.3008l3.9453-2.5469   c7.2148-4.6562,15.5977-7.1172,24.2422-7.1172c24.5703,0,44.5586,19.8477,44.5586,44.2441   C203.9395,187.2031,183.9512,207.0508,159.3809,207.0508z"/>
	<path fill="#1C71DA" d="M117.6113,71.3457c2.2109,0,4-1.791,4-4v-27.043l61.3633,61.3652l5.6562-5.6562L131.822,39.2012h16.8752   c2.2109,0,4-1.791,4-4s-1.7891-4-4-4h-31.0859c-2.2109,0-4,1.791-4,4v32.1445C113.6113,69.5547,115.4004,71.3457,117.6113,71.3457z   "/>
	<path fill="#1C71DA" d="M217.6855,33.5059c-2.2109,0-4,1.791-4,4v21.6406L154.541,0l-5.6562,5.6562l61.6069,61.6084   l-24.5171-0.4541c-0.0273,0-0.0508,0-0.0742,0c-2.1758,0-3.957,1.7422-4,3.9258c-0.0391,2.209,1.7188,4.0332,3.9258,4.0742   l31.7852,0.5879c0.0234,0,0.0508,0,0.0742,0c1.0469,0,2.0547-0.4102,2.8008-1.1465c0.7656-0.752,1.1992-1.7793,1.1992-2.8535   V37.5059C221.6855,35.2969,219.8965,33.5059,217.6855,33.5059z M211.7009,67.2871l1.9846-1.9844v2.0215L211.7009,67.2871z"/>
</g>
<path fill="#FF5D5D" d="M18.1426,98.3262c-1.0234,0-2.0469-0.3904-2.8281-1.1714L1.1719,83.0132  c-1.5625-1.562-1.5625-4.0947,0-5.657c1.5605-1.562,4.0938-1.5623,5.6562-0.0002l14.1426,14.1416  c1.5625,1.562,1.5625,4.0947,0,5.657C20.1904,97.9355,19.166,98.3262,18.1426,98.3262z"/>
<path fill="#FF5D5D" d="M4.001,98.3262c-1.0234,0-2.0479-0.3906-2.8281-1.1716c-1.5625-1.562-1.5625-4.0947,0-5.6567  l14.1416-14.1416c1.5605-1.562,4.0957-1.562,5.6562,0c1.5625,1.562,1.5625,4.0947,0,5.6567L6.8291,97.1545  C6.0488,97.9355,5.0244,98.3262,4.001,98.3262z"/>
<path fill="#00D40B" d="M120.4512,168.2036c-3.585,0-7.1699-1.3645-9.8994-4.094c-5.459-5.4587-5.459-14.3406,0-19.7993  c5.459-5.459,14.3398-5.459,19.7988,0c5.459,5.4587,5.459,14.3406,0,19.7993C127.6211,166.8391,124.0361,168.2036,120.4512,168.2036  z M120.4512,148.2124c-1.5361,0-3.0732,0.585-4.2432,1.7546c-2.3389,2.3396-2.3389,6.1462,0,8.4858  c2.3398,2.3394,6.1465,2.3394,8.4863,0c2.3389-2.3396,2.3389-6.1462,0-8.4858  C123.5244,148.7974,121.9873,148.2124,120.4512,148.2124z"/>
<path fill="#FFC504" d="M86.4805,42.2744c-1.0234,0-2.0479-0.3906-2.8281-1.1716L72.3389,29.7893  c-1.5625-1.562-1.5625-4.0947,0-5.6567l11.3135-11.3135c1.5605-1.562,4.0957-1.562,5.6562,0l11.3135,11.3135  c1.5625,1.562,1.5625,4.0947,0,5.6567L89.3086,41.1028C88.5283,41.8838,87.5039,42.2744,86.4805,42.2744z M80.8242,26.9609  l5.6562,5.6567l5.6562-5.6567l-5.6562-5.6567L80.8242,26.9609z"/>
</svg>